<svg xmlns="http://www.w3.org/2001/svg" width="9.702" height="9.71" viewBox="0 0 9.702 9.71">
  <path id="maximize_1_" data-name="maximize (1)" d="M9.417,0H6.386A.284.284,0,0,0,6.1.284v.853H1.459a.284.284,0,0,0-.284.284v.891H.284A.284.284,0,0,0,0,2.6V9.426a.284.284,0,0,0,.284.284H7.106a.284.284,0,0,0,.284-.284V8.534h.891a.284.284,0,0,0,.284-.284V3.6h.853A.284.284,0,0,0,9.7,3.319V.284A.284.284,0,0,0,9.417,0Zm-2.6,9.141H.568V2.883h.606V8.25a.284.284,0,0,0,.284.284H6.822ZM8,7.965H1.743V1.707H6.79L5.048,3.451a.285.285,0,0,0,0,.4l.8.8a.284.284,0,0,0,.4,0L8,2.914ZM9.133,3.034H8.565V2.227a.284.284,0,0,0-.485-.2L6.053,4.054l-.4-.4L7.678,1.624a.284.284,0,0,0-.2-.486H6.67V.569H9.133Zm0,0" fill="#2f83c5"/>
</svg>
